<svg xmlns="http://www.w3.org/2000/svg" version="1.1" xmlns:xlink="http://www.w3.org/1999/xlink" width="512" height="512" x="0" y="0" viewBox="0 0 490 490" style="enable-background:new 0 0 512 512" xml:space="preserve" class=""><g><circle cx="245" cy="245" r="245" fill="#ffc9f9" opacity="1" data-original="#d54980" class=""></circle><path fill="#593375" d="M392.769 169.786v166.497c0 44.392-66.168 80.378-147.769 80.378-33.77 0-64.897-6.178-89.771-16.535-35.263-14.698-57.998-37.824-57.998-63.843V159.452l57.998 2.021z" opacity="1" data-original="#593375" class=""></path><path fill="#704f85" d="M392.769 169.78v166.51c0 14.787-7.343 28.646-20.173 40.548-12.608 11.721-30.522 21.545-51.946 28.485-22.13 7.202-48.012 11.337-75.65 11.337-17.309 0-33.932-1.614-49.364-4.6V162.88l125.014 4.378 51.946 1.816z" opacity="1" data-original="#704f85" class=""></path><path fill="#593375" d="M489.992 182.079v23.697c.048 6.978-3.501 13.98-10.622 17.743L270.078 334.023c-7.835 4.144-16.457 6.216-25.078 6.216s-17.243-2.072-25.078-6.216L10.63 223.518C3.509 219.755-.04 212.753.008 205.775v-23.697h22.339L219.922 77.766c7.835-4.144 16.457-6.216 25.078-6.216s17.243 2.072 25.078 6.216l197.575 104.313z" opacity="1" data-original="#593375" class=""></path><path fill="#8d71b3" d="M356.362 168.504v220.605c-10.241 6.383-22.291 11.86-35.724 16.218V167.265z" opacity="1" data-original="#8d71b3" class=""></path><path fill="#8d71b3" d="M489.993 182.079v23.7c.05 6.97-3.5 13.98-10.62 17.74l-101.2 53.43-16 8.45-92.1 48.62a53.513 53.513 0 0 1-25.07 6.22V71.549c8.62 0 17.24 2.07 25.07 6.22l197.58 104.31z" opacity="1" data-original="#8d71b3" class=""></path><path fill="#704f85" d="M479.374 164.452 270.085 53.956a53.728 53.728 0 0 0-50.169 0L10.626 164.452c-14.168 7.48-14.168 27.773 0 35.253l209.289 110.496a53.728 53.728 0 0 0 50.169 0l209.289-110.496c14.169-7.48 14.169-27.772.001-35.253z" opacity="1" data-original="#704f85" class=""></path><path fill="#704f85" d="M378.173 245.719v31.23l-16 8.45v-34.95l-117.17-64.39-10.86-5.97a7.994 7.994 0 0 1-3.15-10.86c2.12-3.87 6.99-5.29 10.86-3.16l3.15 1.73 129.03 70.91a7.999 7.999 0 0 1 4.14 7.01z" opacity="1" data-original="#704f85" class=""></path><ellipse cx="245" cy="182.079" fill="#8d71b3" rx="26.197" ry="16.671" opacity="1" data-original="#8d71b3" class=""></ellipse><path fill="#ff85b5" d="M377.177 358.269a8 8 0 0 1-8-8v-90.82l-128.03-70.359a8 8 0 0 1 7.706-14.022l132.177 72.638a8 8 0 0 1 4.147 7.011v95.552a8 8 0 0 1-8 8zM407.401 425.049c0-16.694-13.533-57.834-30.228-57.834-16.694 0-30.228 41.139-30.228 57.834 0 16.694 13.533 2.622 30.228 2.622 16.694 0 30.228 14.072 30.228-2.622z" opacity="1" data-original="#f6e06e" class=""></path><path fill="#d54980" d="M367.175 425.049c0 1.62.04 2.96.12 4.04-11.84 3.1-20.35 9.2-20.35-4.04 0-16.69 13.54-57.83 30.23-57.83-5.52 0-10 41.14-10 57.83z" opacity="1" data-original="#dcbe34" class=""></path><circle cx="377.177" cy="350.269" r="21.952" fill="#ffffff" opacity="1" data-original="#ffffff" class=""></circle><path fill="#f1f1f1" d="M385.175 370.709a21.72 21.72 0 0 1-8 1.51c-12.13 0-21.95-9.83-21.95-21.95s9.82-21.95 21.95-21.95c2.82 0 5.52.53 8 1.51-8.17 3.19-13.95 11.14-13.95 20.44s5.78 17.25 13.95 20.44z" opacity="1" data-original="#f1f1f1" class=""></path></g></svg>